<svg width="60px" height="22px" viewBox="0 0 248 55"  xmlns="http://www.w3.org/2000/svg"><g clip-path="url(#clip0_705_271)"><path d="M52.7354 1.3943H0V53.8433H52.7354V1.3943Z" fill="#E40026"></path><path d="M182.525 47.7891L183.72 53.7415H191.098V25.3741H168.897V33.9796H180.578C179.895 41.2585 175.557 45.3061 168.009 45.3061C157.591 45.3061 153.664 36.4626 153.664 27.7211C153.664 18.5374 157.591 9.69388 168.009 9.69388C173.474 9.69388 177.845 12.7211 179.177 18.5374H190.278C189.048 6.59864 178.836 0 168.043 0C151.683 0 142.085 12.1429 142.085 27.7211C142.085 42.8912 151.683 55 168.043 55C173.132 55 178.46 53.0272 182.525 47.7891Z" fill="#000"></path><path d="M222.11 14.1837H222.247L228.907 33.4694H215.211L222.11 14.1837ZM216.372 1.25848L196.323 53.7415H208.073L212.205 42.0408H231.947L235.943 53.7415H248L228.258 1.25848H216.372Z" fill="#000"></path><path d="M134.673 1.32639L115 53.7073H123.436L143.11 1.32639H134.673Z" fill="#000"></path><path d="M96.5563 17.483C96.5563 22.7891 93.7556 25 88.5641 25H75.8242V10.2041H88.5641C93.7215 10.2041 96.5563 12.4149 96.5563 17.483ZM108.135 15.7483C108.135 7.7891 102.158 1.25848 92.6968 1.25848H64.2115V53.7415H75.8242V33.2313H87.4369C93.2775 33.2313 95.4292 35.6462 96.249 41.1905C96.8296 45.3741 96.693 50.4422 98.0933 53.7755H109.706C107.623 50.8163 107.725 44.6598 107.486 41.3605C107.11 36.0544 105.505 30.5442 99.8011 29.0816V28.9115C105.642 26.5646 108.135 21.9047 108.135 15.7483Z" fill="#000"></path></g><defs><clipPath id="clip0_705_271"><rect width="248" height="55" fill="white"></rect></clipPath></defs></svg>